<?xml version="1.0" encoding="UTF-8"?>
<svg id="Capa_1" xmlns="http://www.w3.org/2000/svg" version="1.1" viewBox="0 0 2048 672.94">
  <!-- Generator: Adobe Illustrator 29.6.0, SVG Export Plug-In . SVG Version: 2.1.1 Build 207)  -->
  <polygon points="1183.66 132.34 1130.86 132.34 1130.86 552.23 1183.03 552.23 1183.66 132.34" fill="#2d2d2d"/>
  <path d="M656.91,308.34c-.14,30.38.17,60.8.05,91.2-.13,34.66-3.3,67.92,14.38,99.92,23.05,41.71,66.75,55.84,112.54,54.03v-52.8c-14.33.15-30.02-.55-43.22-6.44-40.4-18.05-29.94-80.76-29.65-116.08.15-17.57-1.22-35.53-1.06-52.85.05-5.1,2.02-11.4,1-16.97h67.89v-49.03h-69.14c.2-10.68-.25-21.42-.05-32.11.42-22.39.84-45.22,1.36-67.78.15-6.63.74-16.51.01-22.74-.21-1.83-.16-3.23-1.95-4.34h-52.17v126.97h-37.71v47.14l1.89,1.89h35.83Z" fill="#2d2d2d"/>
  <path d="M1969.98,527.05c20.43-16.28,41.62-41.26,44.66-67.85h-53.43c-24.49,41.39-72.73,64.53-119.66,45.48-85.72-34.8-84.66-172.17,6.16-197.95,45.17-12.83,89.95,5.72,113.5,45.61h53.43c-15.39-64.81-84.91-103.22-148.96-99.3-95.83,5.86-154.13,92.84-137.11,184.86,20.45,110.53,153.91,158.87,241.41,89.16Z" fill="#2d2d2d"/>
  <path d="M1320.63,547.89l1.95,4.34h49.03c.34,0,4.32-1.49,4.47-2.04l-.06-159.49c5.49-115.5,160.66-126.97,177.07-7.38,4.4,32.08,2.66,65.82,2.74,97.83.06,23.69-.15,47.41-.05,71.08h54.06v-159.02c-6.47-185.12-278.33-192.81-289.2-1.32-2.9,51.01,2.33,104.71-.01,156.01Z" fill="#2d2d2d"/>
  <path d="M1258.35,226.52c42.6-5.65,35.31-76.08-12.14-69.96-42.66,5.5-40.43,76.93,12.14,69.96Z" fill="#2d2d2d"/>
  <path d="M1089.36,420.84c1.53-23.59,1.18-49.23,1.33-72.84.19-29.2-.88-58.28-1.32-87.43h-54.06c-.19,2.77-1.11,5.3-1.31,8.12-4.25,58.21,14.3,164.58-20.28,211.04-33.41,44.89-107.55,43.73-139.88-1.75-13.53-19.04-17.21-43.11-19.62-65.87l.05-151.54h-54.06v161.53c8.9,182.95,276.97,186.12,289.14-1.26Z" fill="#2d2d2d"/>
  <path d="M73.56,522.7c69.08,62.4,184.78,42.09,219.72-46.83,30.47-77.53-3.78-166.27-82.65-195.82,24.33-35.28,18.99-101.28-12.58-130.76-9.29-8.67-36.03-23.24-48.42-23.24H33.35v318.69c0,25.71,21.55,61.1,40.21,77.96ZM87.41,176.34h53.43c.83,0,8.76,2.86,10.29,3.54,35.9,15.97,37.2,73.06,2.5,90.96-2.99,1.54-15.12,6.07-17.82,6.07h-48.4v-100.57ZM87.41,325.94h89.89c105.11,10.67,97.5,192.1-17.58,182.27-33.92-2.9-72.31-31.82-72.31-68.5v-113.77Z" fill="#2d2d2d"/>
  <path d="M1699.02,220.89c30.63-21.85,10.93-70.29-26.65-64.36-24.87,3.92-37.16,35.76-22.85,56.19,10.75,15.35,34.55,18.84,49.5,8.17Z" fill="#2d2d2d"/>
  <path d="M1225.15,549.09c0,.42,1.67,1.91,1.26,3.14h51.54v-291.66h-52.8v288.52Z" fill="#2d2d2d"/>
  <rect x="1652.58" y="260.57" width="51.54" height="291.66" fill="#2d2d2d"/>
  <path d="M612.01,455.16c29.61-102.12-42.97-212.08-153.99-201.76-105.98,9.86-166.51,140.97-114.36,231.79,63.38,110.37,232.18,94.71,268.35-30.03ZM461.76,304.92c133.78-14.34,138.78,212.23,4.7,203.3-119.38-7.95-114.8-191.5-4.7-203.3Z" fill="#2d2d2d"/>
</svg>