<?xml version="1.0" encoding="UTF-8"?>
<svg id="Capa_1" xmlns="http://www.w3.org/2000/svg" version="1.1" viewBox="0 0 2048 672.94">
  <!-- Generator: Adobe Illustrator 29.6.0, SVG Export Plug-In . SVG Version: 2.1.1 Build 207)  -->
  <polygon points="1166 175.47 1124 175.47 1124 509.47 1165.5 509.47 1166 175.47" fill="#efefef"/>
  <path d="M747,315.47c-.11,24.17.13,48.36.04,72.54-.11,27.57-2.63,54.02,11.44,79.48,18.33,33.18,53.09,44.42,89.52,42.98v-42c-11.4.12-23.88-.43-34.38-5.12-32.13-14.35-23.82-64.24-23.58-92.34.12-13.98-.97-28.26-.84-42.04.04-4.06,1.6-9.07.8-13.5h54v-39h-55c.16-8.49-.2-17.04-.04-25.54.33-17.81.67-35.97,1.08-53.92.12-5.28.59-13.14,0-18.09-.17-1.46-.12-2.57-1.55-3.45h-41.5v101h-30v37.5l1.5,1.5h28.5Z" fill="#efefef"/>
  <path d="M1791.47,489.44c16.25-12.95,33.11-32.82,35.53-53.97h-42.5c-19.48,32.92-57.85,51.33-95.18,36.18-68.19-27.68-67.34-136.95,4.9-157.46,35.93-10.2,71.55,4.55,90.28,36.28h42.5c-12.24-51.55-67.54-82.1-118.49-78.99-76.23,4.66-122.6,73.85-109.06,147.04,16.27,87.92,122.43,126.38,192.03,70.92Z" fill="#efefef"/>
  <path d="M1274.95,506.02l1.55,3.45h39c.27,0,3.44-1.19,3.56-1.62l-.05-126.87c4.37-91.87,127.79-101,140.85-5.87,3.5,25.51,2.12,52.36,2.18,77.82.05,18.85-.12,37.71-.04,56.54h43v-126.49c-5.15-147.25-221.4-153.37-230.04-1.05-2.3,40.58,1.85,83.29,0,124.09Z" fill="#efefef"/>
  <path d="M1225.41,250.39c33.89-4.49,28.09-60.52-9.66-55.65-33.93,4.38-32.16,61.2,9.66,55.65Z" fill="#efefef"/>
  <path d="M1090.99,404.96c1.22-18.77.93-39.16,1.06-57.94.15-23.22-.7-46.36-1.05-69.55h-43c-.15,2.21-.88,4.22-1.04,6.46-3.38,46.3,11.38,130.91-16.13,167.87-26.58,35.71-85.55,34.79-111.26-1.39-10.76-15.14-13.69-34.29-15.61-52.39l.04-120.54h-43v128.49c7.08,145.53,220.31,148.04,229.99-1Z" fill="#efefef"/>
  <path d="M282.99,485.98c54.95,49.63,146.98,33.48,174.78-37.25,24.24-61.67-3.01-132.26-65.74-155.76,19.35-28.06,15.11-80.56-10.01-104.01-7.39-6.9-28.66-18.49-38.51-18.49h-92.5v253.5c0,20.45,17.14,48.61,31.99,62.01ZM294,210.47h42.5c.66,0,6.97,2.28,8.18,2.82,28.55,12.7,29.59,58.11,1.99,72.35-2.38,1.23-12.02,4.83-14.17,4.83h-38.5v-80ZM294,329.47h71.5c83.61,8.48,77.56,152.8-13.98,144.98-26.98-2.3-57.52-25.31-57.52-54.48v-90.5Z" fill="#efefef"/>
  <path d="M1575.94,245.91c24.36-17.38,8.69-55.91-21.2-51.2-19.78,3.12-29.56,28.45-18.18,44.7,8.55,12.21,27.48,14.98,39.37,6.5Z" fill="#efefef"/>
  <path d="M1199,506.97c0,.33,1.32,1.52,1,2.5h41v-232h-42v229.5Z" fill="#efefef"/>
  <rect x="1539" y="277.47" width="41" height="232" fill="#efefef"/>
  <path d="M711.29,432.26c23.56-81.23-34.18-168.7-122.49-160.49-84.3,7.84-132.45,112.14-90.97,184.37,50.41,87.79,184.68,75.33,213.46-23.88ZM591.78,312.75c106.42-11.4,110.39,168.81,3.74,161.71-94.96-6.32-91.32-152.33-3.74-161.71Z" fill="#efefef"/>
</svg>